<?xml version="1.0" encoding="utf-8"?><svg xmlns="http://www.w3.org/2000/svg" version="1.1" baseProfile="tiny" width="1200" height="800" viewBox="0 0 1200 800"><g><g stroke="#000000" stroke-width=".98" fill="#FFFFFF"><path d="m702.45 8.66l-5.03-.55-9.98-2.64-5.18-.47-2.68.57-4.78 2.14-5.03.77-6.67 2.17-2.83.38-2.39-.35-2.26-.6-2.49-.31-2.77.74-4.33 3.58-2.07 1.25-10.07.87-1.75.37-25.71 11.48-4.11 4.19-1.06.67-2.35.56-2.27 1.35-1.87 1.59-1.14 1.26-2.48 4.54-1.48 1.39-2.83.5-5.28.1-2.5.44-.52.23-1.68.76-3.9 3.7-2.53 3.09-.36.81-1.6 2.38-.36 1.29.24 1.06.53.82.54.65.29.59-.65 3.96-1.51 4.84-.62 4.64 1.98 3.33-2.78 6.23-.41 2.52.43 2.01 1.93 4.87.03 2.65-2.82 4.46-.46.95-.77 4.21-1.59 1.81-4.61 3.37-.95 1.98-2.3 2.14-.99.87-1.64.25-3.27 0-5.52.99-42.31 16.05-7.87 4.9-11.48 9.2-10.59 4.4-17.99 7.49-6.02 3.49-4.61 4.84-15.86 22.98-1.9 4.06-2.37 9.25-3.16 5.87-6.18 6.05-11.91 10.45-30.86 30.81-1.18 1.69-.19 1.2.14 2.88.29 2.75-3.91 4.62-4.34 4.06-3.46 3.18-3.17 1.66-1.75.48-5.48.24-1.23.48-4.26 2.7-2.77-.87-10.98 4.85-2.83.33-1.88.46-1.52.87-3.33 2.95-1.39.4-1.67-.29-6.62-2.04-1.88-.93-1.61-1.31-1.81-1.95-1.52-1.21-1.94-.74-3.08-.52-4.86-1.48-8.95-4.7-5.35-.97-4.33.62-.84-.19-.74-.7-.95-.65-1.11-.49-5.35-.6-1.06-.38-.62-.72-.66-1.08-.83-.98-1.07-.41-1.04.52-4.14 3.07-1.03.56-2.7.49-1.96 1.05-2.02.49-.7.26-.12.45.23 1.48-.11.46-1.64.44-2.18.06-1.85.4-.7 1.42-.79-.81-6.43 3.19-1.35.19-4.95-.19-7.09-3.19-1.18-1.34-.85-1.91.15-1.66 1.88-.65-1.62-2-5.28-2.15-1.13-1.81-1.01-1.21-2.33-1.45-2.58-1.21-4.36-1.11-1.42-1.22-1.49-.92-2.84.29-6.18 2.58-7.82 1.46-.69.27-1.02 1.07-.66.25-.74-.13-1.09-.6-.61-.14-8.77 0-1.25-.21-3.85-1.38-3.64.16-1.13-.16-2.28-1.05-3.56-2.67-2.17-.97-.81-.79-4.71 9.97 0 3.29.78 2.78 3.38 8.07 4.81 7.86 3.15 3.26 3.97 2.24 3.5 2.7 2.48 4.31 3.73 8.99 3.77 5.85.92 2.32 1.09 4.91.59 1.56 1.51 2.36 7.68 7.75 3.96 2.56 1.59 1.57 5.52 7.56 3.35 2.81 4.5 2.16 2.92 2.52 1.33 4.1.71 8.52 4.17 8.77 14.61 12.49 3.12 9.16.04.12-.4 2.41-1.9 4.32-.38 2.39.44 2.8.92 2.19 2.87 4.63 3.53 4.43 2.67 5.11 11.17 29.98 2.94 4.2 4.54 2.68 5.2 1.31 6.23.12 1.27.56 1.13.81.91.91 1.16 1.5.29.94-.83 2.44-.85 1.44-.77.39-.03.2 1.42.9.92.39 3.54.6 2.63 1.34 3.21 4.71 2.22 1.98 2.14.79 4.6 1 2.23.86 4.7 2.89 1.99 1.95.99 2.18.83 2.63 1.59 1.57 2.15.91 5.28 1.43 1.68.9.39.39.88.91 1.62 2.09 1.78 1.73 1.99.99 2.31.43 2.75.03 4.36.77 13.18 6.34 4.2.74 3.87-.05 3.77.38 3.9 2.04 1.06 1.14 2.01 2.7 1.26.97 1.43.51 1.18.07 1.16-.11 1.42.05 2.45.37 2.42.68 2.1 1.24 1.53 2.03 5.96 14.41 2.09 13.67-1.82 16.8 4.39-2.14 4.04-.51 13.18.04 9.34 1.13 6.61-1.13 4.07 1.78 4.68.06 2.07.81 1.68 1.51.86 2.05-.34 4.6-1.43 4.12-.92 4.17 2.9 9.25.26 4.66-1.77 9.44-.62 1.31-.84 1-.68 1.06-.14 1.54.03 1.32-.29 2.61.01 1.15.9 6.53-.17 2.46-1.41 6.17-.02 2.04.95 2.2 4.01 5.17 1.77 1.77 8.09 5.56 3.46 3.99 2.98 4.42 4.17 4.72 1.1 1.65.26.94-.06 1.81.2.87.74 1.09 1.9 1.91 3.46 6.66.32 1.2-.39.92-.89 1.39-.25 1.11.41.22.82.25.47.67-.6 1.51.46 1.13.56.12.66-.12.8.46.6.95 1.05 2.37.66 1.05 1.42 1.43 1.63 1.01 1.9.58 6.74.4 8.73 1.62 13.88.19 4.31.78 4.64 1.49 9.48 4.6 2.5.53 1.96-.34 1.85-.69 4.1-.98 1.22-.56 1.29-.2 3.72.91 3.46.32 1.63.49 4.51 3.33 5.33 1.58 17.09 7.44 3.51.88 7.09.4 3.37.75 2.09 1.3 4.65 1.39 1.93 1.41.28 2.24-1.42 2.72-1.93 2.8-1.28 2.51-.48 4.92.91 4.94 2.2 4.44 3.53 3.5 4.33 2.12 4.3.71 11-.31.59.36 1.13 1.32.64 1.05.9 2.3.74 1.08 8.9 7.18.8.49.73.16 1.73.07 2.5-1.25 4.26-2.22 2.42-.5 5.83 1.31 2.9.28 1.24-1.16 1-1.93 2.22-.47 3.94.37 4.32-1.85 2.37-.32 2.12 1.38 1.38-.49 7.86-.37 2.37.63 6.76 4.21 3.98.79 2.86 1.41 4.2.35 1.7.45 3.18 1.83 1.14.44 2.5.53 1.2.55 2.21 2.23.16.52.26.37 3.47.38 1.71.68 3.32 2.26 2.79 1.31 2.05.15 5.16-.66 2.88.2 2.18.61 1.73 1 1.64 1.36 3.66 2.4 3.99.9 4.32-.14 4.73-.77 2.21-.66 4.37-1.88 2.24-.57 2.21-.07 7.54.82 3.37-.03 1.08.27 1.77 1.15.8.25 1.75-.5 3.13-2.08 2.28-.67 12.98-.97 3.79-1.42 3.4.86 7 .71 12.69 2.78 3.99 1.63 2.01.38 1.1-.23.87-.18 3.87-1.74 1.73-.24 1.25.73 2.37 2.67.82.59.83.23 1.82 1.08.94.35.94-.11 1.88-.74 1.15.04 1.16.88 2.72 3.71 9.29-6.09 7.58-5.01 6.06-6.26 6.1-6.33 6.12-6.33 6.1-6.34 6.11-6.34 6.09-6.33 6.11-6.33 6.11-6.35 6.11-6.33 6.1-6.33 6.11-6.33 6.1-6.35 6.1-6.33 6.12-6.33 6.1-6.33 6.12-6.34 6.09-6.33 5.64-5.85 4.15-4.38 4.5 2.72-.16-.55-.14-.5-8.49-13.6.14-.46.46-.64.42-.73.02-.78-.34-.24-.51.02-.53-.07-1.04-1.35-1.7-1-.64-1.02 9.01-10.85 5.88-7.08 2.72-5.1.72-4.45-1.6-12.1-1.67-12.51.23-4.82 1.23-4.94 3.67-4.48 5.05-.62 5.49.64 4.99-.79 2.95-3.05 3.8-6.99 3.66-6.71 7.56-8.81 5.18-6.04.9-1.49.64-1.68.83-3.56-.06-.93-.78-1.56-.15-.81.25-1.13 1.59-2.76.58-1.8.87-5.67 1.06-1.05 1.89-.34 1.85-.54.9-1.67.68-3.57 1.59-1.31 6.23.21-.33-.91-.7-2.72.42-8.6 2.25-6.87.18-4.8.79-2.73.37-2.24-1.17-1.29-2.58-1.02-2.51-1.51-1.94-1.86-.96-2.05.96-4.51-.17-2.36-2.07-1.11-2.17.7-3.48 3.38-2.62.69-2.69-.14-2.1-.45-1.33-1.27-.39-2.59.37-1.18.69-1.01.49-1.12-.17-1.51-.29-1.15-.03-1.07.83-8.42-.04-2.15-.79-2.53-1.64-.54-2.12.26-2.23-.1-1.24-1.39-.13-2.39.73-4.73-.24-3.42.28-1.14 4.35-4.69 1.69-2.57.93-1.95.41-2.09.12-2.87 3.38-14.44-.74-3.99-.98-1.15-1.09-.82-.92-.9-.58-1.43-.26-1.36-.35-.8-.67-.53-1.27-.49-2.02-.22-7.24 1.04-1.58-.07-1.32-.44-.92-.92-.28-1.56.19-1.48-.19-1.27-.88-2.6.17-1.44 1.13-.97 1.49-.79 1.25-.9-1.46-.92-.75-1.71-.81-6.29.18-1.04 11.21-5.01 3.53-.49 4.77.34 3.07-.25 2.01-1.55 1.25-2.51.82-3.11.24-3.86-.91-3.17-3.5-6.62-1.49-4.18-.4-2.4.29-1.96 1.44-1.59 2-.79 2.22-.62 2.07-1.04 2.27-1.3 2.56-1.15 2.08-1.5.77-2.36-.41-1.19-1.48-1.68-.17-1.14.33.08 2.45-3.4 3.36-2.44.55-1.28-.91-2.23-2.11-2.24-5.44-4.21-1.77-2.47-.52-1.75.21-.96.68-.89.91-1.54 1.04-2.49.08-.87-.38-3.85-4.1-12.02-.25-2.62.62-2.3.11-1-1.43-1.62-.18-1.1.59-.93.92-.57.91-.79.46-1.51-.22-2.06-1.37-3.26-.19-2.28.33-2.27.75-2.42 1.27-1.95 1.93-.86 2.97-1.9.48-4.26-.35-5.11.45-4.46 1.93-4.32.45-2.24-.48-2.41-1.6-2.05-4.37-1.91-2.03-1.53-.52-.96-1.23-3.94-.01-1.29.75-.78 1.01-.63.75-.9 4.58-8.56 1.65-2.44.54-.8.72-1.83-.09-1.85-.82-1.04-2.59-1.39-1.02-.81-1.21-2.31-.44-2.54-.04-1.16-.16-4.34-1.58-7.19-2.99-6.72-4.86-8.3-6.6-11.26-.16-.74 8.36-7.85 1.83-2.31 2-3.75 3.28-12.28.81-3.34-1.43.17-1.94.78-3.49 2.13-1.89.5-3.66-.22-7.14-1.53-3.65-.22-1.8.29-1.63.61-1 .65-.04-.01-.67-.26-3.09-2.29-1.17-4.6-.08-2.68-.56-1.68-1.32-1.18-13.94-5.4-18.46-7.18-12.02-4.66-9.16-1.34-23.02.55-12.1-1.87-1.85-.86-1.02-1.77-.57-4.46-1.03-2.05-1.38-1.12-4.89-2.47-2.25-1.86-7.05-7.44-3.21-2.55-2.86-1.24-19.44-1.25-4.49-2.15-1.75-1.2-2.32-.32-2.52-.03-2.27-.28-.22-.34.16-.57.03-.54-.55-.3-.47.05-.91.22-.44-.09-.73-.77-.36-1.08-.51-1.07-1.15-.8-2.27-1.19-1.46-1.61-2.19-3.94-1.66-2.02-1.91-1.33-2.2-.79-11.82-2.71-5.18-.39-2.91 1.75-.96 1.64-.87-.05-.93-.69-.99-.24-1.71.86-2.15 2.36-1.36 1.13-2.6 1.09-1.94-.26-1.72-1.28-1.88-1.92-4.7-3.19-5.17-1.05-12.55.08-19 .14-8.36.04-13.07.1-.15-8.1-.24-13.94-.18-11.09-.17-9.41-4.61 1.8-3.33.11-3.71-1.56-1.88-.79-2.93-.39-1.03.37-1.75 1.47-.92.59-1.85.4-1.36-.47-2.99-1.98-4.63-.98-4.67.66-4.64 1.25-4.61.71z" /></g></g></svg>